<svg width="46" height="46" viewBox="0 0 46 46" fill="none" xmlns="http://www.w3.org/2000/svg">
<circle cx="23" cy="23" r="23" transform="matrix(-1 0 0 1 46.0005 0)" fill="#5E81F4"/>
<path fill-rule="evenodd" clip-rule="evenodd" d="M17.6922 15.7334L12.2651 25.1334C11.4953 26.4667 12.4576 28.1334 13.9972 28.1334H19.2582L23.7869 20.2896L21.1563 15.7334C20.3865 14.4001 18.462 14.4001 17.6922 15.7334ZM24.3642 19.2896L24.4929 19.0667C25.6476 17.0667 28.5343 17.0667 29.689 19.0667L35.1161 28.4667C36.2708 30.4667 34.8274 32.9667 32.518 32.9667H21.6639C19.6057 32.9667 18.2354 30.9811 18.7789 29.1334H13.9972C11.6878 29.1334 10.2444 26.6334 11.3991 24.6334L16.8262 15.2334C17.9809 13.2334 20.8677 13.2334 22.0224 15.2334L24.3642 19.2896ZM24.9416 20.2896L25.3589 19.5667C26.1287 18.2334 28.0532 18.2334 28.823 19.5667L34.2501 28.9667C35.0199 30.3001 34.0576 31.9667 32.518 31.9667H21.6639C20.1878 31.9667 19.2424 30.4348 19.8453 29.1334H24.8514C27.1608 29.1334 28.6042 26.6334 27.4495 24.6334L24.9416 20.2896ZM20.4129 28.1334L24.3642 21.2896L26.5834 25.1334C27.3532 26.4667 26.391 28.1334 24.8514 28.1334H20.4129Z" fill="#5E81F4"/>
<path d="M12.2651 25.1334L11.8321 24.8834L12.2651 25.1334ZM17.6922 15.7334L18.1252 15.9834V15.9834L17.6922 15.7334ZM19.2582 28.1334L19.6912 28.3834L19.5469 28.6334H19.2582V28.1334ZM23.7869 20.2896L24.2199 20.0396L24.3642 20.2896L24.2199 20.5396L23.7869 20.2896ZM21.1563 15.7334L21.5894 15.4834V15.4834L21.1563 15.7334ZM24.3642 19.2896L24.7972 19.5396L24.3642 20.2896L23.9312 19.5396L24.3642 19.2896ZM24.4929 19.0667L24.9259 19.3167V19.3167L24.4929 19.0667ZM29.689 19.0667L29.256 19.3167L29.689 19.0667ZM35.1161 28.4667L34.6831 28.7167L35.1161 28.4667ZM18.7789 29.1334V28.6334H19.4472L19.2586 29.2745L18.7789 29.1334ZM11.3991 24.6334L11.8321 24.8834L11.3991 24.6334ZM16.8262 15.2334L17.2592 15.4834V15.4834L16.8262 15.2334ZM22.0224 15.2334L21.5894 15.4834L22.0224 15.2334ZM24.9416 20.2896L24.5085 20.5396L24.3642 20.2896L24.5085 20.0396L24.9416 20.2896ZM25.3589 19.5667L24.9259 19.3167L24.9259 19.3167L25.3589 19.5667ZM28.823 19.5667L29.256 19.3167L28.823 19.5667ZM34.2501 28.9667L33.8171 29.2167H33.8171L34.2501 28.9667ZM19.8453 29.1334L19.3916 28.9232L19.5258 28.6334H19.8453V29.1334ZM27.4495 24.6334L27.8825 24.3834H27.8825L27.4495 24.6334ZM20.4129 28.1334V28.6334H19.5469L19.9799 27.8834L20.4129 28.1334ZM24.3642 21.2896L23.9312 21.0396L24.3642 20.2896L24.7972 21.0396L24.3642 21.2896ZM26.5834 25.1334L27.0164 24.8834L26.5834 25.1334ZM11.8321 24.8834L17.2592 15.4834L18.1252 15.9834L12.6982 25.3834L11.8321 24.8834ZM13.9972 28.6334C12.0727 28.6334 10.8699 26.5501 11.8321 24.8834L12.6982 25.3834C12.1208 26.3834 12.8425 27.6334 13.9972 27.6334V28.6334ZM19.2582 28.6334H13.9972V27.6334H19.2582V28.6334ZM18.8252 27.8834L23.3538 20.0396L24.2199 20.5396L19.6912 28.3834L18.8252 27.8834ZM21.5894 15.4834L24.2199 20.0396L23.3538 20.5396L20.7233 15.9834L21.5894 15.4834ZM17.2592 15.4834C18.2215 13.8167 20.6271 13.8167 21.5894 15.4834L20.7233 15.9834C20.146 14.9834 18.7026 14.9834 18.1252 15.9834L17.2592 15.4834ZM23.9312 19.0396L24.0599 18.8167L24.9259 19.3167L24.7972 19.5396L23.9312 19.0396ZM24.0599 18.8167C25.407 16.4834 28.7749 16.4834 30.122 18.8167L29.256 19.3167C28.2938 17.6501 25.8881 17.6501 24.9259 19.3167L24.0599 18.8167ZM30.122 18.8167L35.5491 28.2167L34.6831 28.7167L29.256 19.3167L30.122 18.8167ZM35.5491 28.2167C36.8963 30.5501 35.2123 33.4667 32.518 33.4667V32.4667C34.4425 32.4667 35.6454 30.3834 34.6831 28.7167L35.5491 28.2167ZM32.518 33.4667H21.6639V32.4667H32.518V33.4667ZM21.6639 33.4667C19.2598 33.4667 17.665 31.1485 18.2993 28.9923L19.2586 29.2745C18.8058 30.8137 19.9517 32.4667 21.6639 32.4667V33.4667ZM18.7789 29.6334H13.9972V28.6334H18.7789V29.6334ZM13.9972 29.6334C11.3029 29.6334 9.61896 26.7167 10.9661 24.3834L11.8321 24.8834C10.8699 26.5501 12.0727 28.6334 13.9972 28.6334V29.6334ZM10.9661 24.3834L16.3932 14.9834L17.2592 15.4834L11.8321 24.8834L10.9661 24.3834ZM16.3932 14.9834C17.7404 12.6501 21.1082 12.6501 22.4554 14.9834L21.5894 15.4834C20.6271 13.8167 18.2215 13.8167 17.2592 15.4834L16.3932 14.9834ZM22.4554 14.9834L24.7972 19.0396L23.9312 19.5396L21.5894 15.4834L22.4554 14.9834ZM24.5085 20.0396L24.9259 19.3167L25.7919 19.8167L25.3746 20.5396L24.5085 20.0396ZM24.9259 19.3167C25.8881 17.6501 28.2938 17.6501 29.256 19.3167L28.39 19.8167C27.8126 18.8167 26.3693 18.8167 25.7919 19.8167L24.9259 19.3167ZM29.256 19.3167L34.6831 28.7167L33.8171 29.2167L28.39 19.8167L29.256 19.3167ZM34.6831 28.7167C35.6454 30.3834 34.4425 32.4667 32.518 32.4667V31.4667C33.6727 31.4667 34.3944 30.2167 33.8171 29.2167L34.6831 28.7167ZM32.518 32.4667H21.6639V31.4667H32.518V32.4667ZM21.6639 32.4667C19.8176 32.4667 18.6374 30.5515 19.3916 28.9232L20.299 29.3435C19.8475 30.3181 20.558 31.4667 21.6639 31.4667V32.4667ZM24.8514 29.6334H19.8453V28.6334H24.8514V29.6334ZM27.8825 24.3834C29.2296 26.7167 27.5457 29.6334 24.8514 29.6334V28.6334C26.7759 28.6334 27.9787 26.5501 27.0164 24.8834L27.8825 24.3834ZM25.3746 20.0396L27.8825 24.3834L27.0164 24.8834L24.5085 20.5396L25.3746 20.0396ZM19.9799 27.8834L23.9312 21.0396L24.7972 21.5396L20.846 28.3834L19.9799 27.8834ZM24.7972 21.0396L27.0164 24.8834L26.1504 25.3834L23.9312 21.5396L24.7972 21.0396ZM27.0164 24.8834C27.9787 26.5501 26.7759 28.6334 24.8514 28.6334V27.6334C26.0061 27.6334 26.7278 26.3834 26.1504 25.3834L27.0164 24.8834ZM24.8514 28.6334H20.4129V27.6334H24.8514V28.6334Z" fill="white"/>
</svg>
